<svg width="350" height="350" viewBox="0 0 350 350" fill="none" xmlns="http://www.w3.org/2000/svg">
<rect width="350" height="350" fill="#0F172A"/>
<path opacity="0.5" d="M96.0294 87.3175H105.664L114.94 104.838H115.338L124.614 87.3175H134.249L119.41 113.618V128H110.868V113.618L96.0294 87.3175ZM173.873 107.659C173.873 112.095 173.032 115.869 171.351 118.982C169.682 122.094 167.404 124.471 164.517 126.113C161.643 127.742 158.412 128.556 154.823 128.556C151.208 128.556 147.963 127.735 145.09 126.093C142.216 124.451 139.945 122.074 138.276 118.962C136.608 115.85 135.773 112.082 135.773 107.659C135.773 103.222 136.608 99.4481 138.276 96.336C139.945 93.2239 142.216 90.8534 145.09 89.2245C147.963 87.5823 151.208 86.7613 154.823 86.7613C158.412 86.7613 161.643 87.5823 164.517 89.2245C167.404 90.8534 169.682 93.2239 171.351 96.336C173.032 99.4481 173.873 103.222 173.873 107.659ZM165.153 107.659C165.153 104.785 164.722 102.362 163.862 100.388C163.014 98.4151 161.816 96.9187 160.266 95.899C158.717 94.8792 156.902 94.3694 154.823 94.3694C152.744 94.3694 150.93 94.8792 149.38 95.899C147.831 96.9187 146.626 98.4151 145.765 100.388C144.918 102.362 144.494 104.785 144.494 107.659C144.494 110.532 144.918 112.956 145.765 114.929C146.626 116.902 147.831 118.399 149.38 119.419C150.93 120.438 152.744 120.948 154.823 120.948C156.902 120.948 158.717 120.438 160.266 119.419C161.816 118.399 163.014 116.902 163.862 114.929C164.722 112.956 165.153 110.532 165.153 107.659ZM205.374 87.3175H213.975V113.737C213.975 116.704 213.266 119.299 211.849 121.524C210.446 123.749 208.479 125.484 205.95 126.729C203.42 127.96 200.474 128.576 197.11 128.576C193.733 128.576 190.78 127.96 188.25 126.729C185.721 125.484 183.754 123.749 182.351 121.524C180.947 119.299 180.245 116.704 180.245 113.737V87.3175H188.846V113.002C188.846 114.552 189.184 115.929 189.859 117.134C190.548 118.339 191.515 119.286 192.76 119.975C194.004 120.663 195.455 121.008 197.11 121.008C198.779 121.008 200.229 120.663 201.46 119.975C202.705 119.286 203.665 118.339 204.341 117.134C205.029 115.929 205.374 114.552 205.374 113.002V87.3175ZM221.052 128V87.3175H237.102C240.175 87.3175 242.797 87.8671 244.968 88.9662C247.154 90.0522 248.816 91.595 249.954 93.5947C251.107 95.5811 251.683 97.9185 251.683 100.607C251.683 103.308 251.1 105.633 249.935 107.579C248.769 109.513 247.081 110.996 244.869 112.029C242.671 113.062 240.009 113.578 236.884 113.578H226.137V106.666H235.493C237.135 106.666 238.499 106.44 239.585 105.99C240.671 105.54 241.479 104.864 242.009 103.964C242.552 103.063 242.823 101.944 242.823 100.607C242.823 99.2561 242.552 98.1172 242.009 97.1901C241.479 96.2631 240.665 95.5613 239.565 95.0845C238.479 94.5945 237.109 94.3495 235.453 94.3495H229.653V128H221.052ZM243.022 109.486L253.133 128H243.638L233.745 109.486H243.022ZM94.8871 155.317V196H86.2858V155.317H94.8871ZM101.964 155.317H112.572L123.775 182.651H124.252L135.455 155.317H146.063V196H137.72V169.521H137.382L126.854 195.801H121.173L110.645 169.421H110.307V196H101.964V155.317ZM160.162 196H150.945L164.989 155.317H176.073L190.098 196H180.881L170.69 164.614H170.372L160.162 196ZM159.586 180.009H181.357V186.723H159.586V180.009ZM220.058 168.468C219.78 167.501 219.39 166.647 218.886 165.905C218.383 165.15 217.767 164.515 217.039 163.998C216.324 163.469 215.503 163.065 214.576 162.787C213.662 162.508 212.649 162.369 211.537 162.369C209.457 162.369 207.63 162.886 206.054 163.919C204.491 164.952 203.273 166.455 202.399 168.428C201.525 170.388 201.088 172.785 201.088 175.619C201.088 178.453 201.518 180.863 202.379 182.85C203.24 184.836 204.458 186.352 206.034 187.399C207.61 188.432 209.471 188.948 211.616 188.948C213.563 188.948 215.225 188.604 216.602 187.915C217.992 187.213 219.052 186.227 219.78 184.955C220.522 183.684 220.893 182.181 220.893 180.446L222.641 180.704H212.152V174.228H229.176V179.354C229.176 182.929 228.421 186.002 226.912 188.571C225.402 191.127 223.323 193.1 220.674 194.49C218.026 195.868 214.993 196.556 211.576 196.556C207.762 196.556 204.412 195.715 201.525 194.033C198.638 192.338 196.387 189.935 194.771 186.823C193.168 183.697 192.367 179.989 192.367 175.698C192.367 172.401 192.844 169.461 193.798 166.879C194.764 164.283 196.115 162.085 197.85 160.284C199.585 158.483 201.604 157.112 203.909 156.172C206.213 155.231 208.709 154.761 211.397 154.761C213.702 154.761 215.847 155.099 217.834 155.774C219.82 156.437 221.581 157.377 223.118 158.595C224.667 159.813 225.932 161.264 226.912 162.945C227.892 164.614 228.521 166.455 228.799 168.468H220.058ZM235.637 196V155.317H263.05V162.409H244.238V172.103H261.64V179.195H244.238V188.908H263.13V196H235.637ZM104.613 264V223.317H113.215V240.103H130.676V223.317H139.257V264H130.676V247.195H113.215V264H104.613ZM146.349 264V223.317H173.762V230.409H154.95V240.103H172.351V247.195H154.95V256.908H173.841V264H146.349ZM180.6 264V223.317H196.651C199.723 223.317 202.345 223.867 204.517 224.966C206.702 226.052 208.364 227.595 209.503 229.595C210.655 231.581 211.231 233.919 211.231 236.607C211.231 239.308 210.648 241.633 209.483 243.579C208.318 245.513 206.629 246.996 204.418 248.029C202.219 249.062 199.557 249.578 196.432 249.578H185.685V242.666H195.042C196.684 242.666 198.048 242.44 199.134 241.99C200.22 241.54 201.027 240.864 201.557 239.964C202.1 239.063 202.372 237.944 202.372 236.607C202.372 235.256 202.1 234.117 201.557 233.19C201.027 232.263 200.213 231.561 199.114 231.085C198.028 230.595 196.657 230.35 195.002 230.35H189.201V264H180.6ZM202.57 245.486L212.681 264H203.186L193.293 245.486H202.57ZM217.31 264V223.317H244.723V230.409H225.911V240.103H243.312V247.195H225.911V256.908H244.802V264H217.31Z" fill="white"/>
</svg>
