<svg width="248" height="300" viewBox="0 0 248 300" fill="none" xmlns="http://www.w3.org/2000/svg">
<rect x="0.309917" y="0.309917" width="247.314" height="298.76" rx="8.9876" fill="white" stroke="#D9D9D9" stroke-width="0.619835"/>
<rect x="13.6364" y="53.9256" width="220.661" height="190.909" fill="#272E3F"/>
<path d="M13.0165 262.847C13.0165 266.612 16.1075 268.618 18.3696 270.414C19.1677 271.047 19.9366 271.644 20.7055 271.644C21.4744 271.644 22.2433 271.048 23.0414 270.413C25.3042 268.619 28.3944 266.612 28.3944 262.848C28.3944 259.083 24.1655 256.413 20.7055 260.033C17.2454 256.412 13.0165 259.082 13.0165 262.847Z" fill="#272E3F"/>
<path d="M49.4109 264.98C49.4121 265.855 49.2407 266.722 48.9062 267.53C48.5718 268.339 48.0811 269.073 47.4622 269.692C46.843 270.311 46.108 270.802 45.2989 271.137C44.4899 271.472 43.6228 271.644 42.7471 271.644C41.8047 271.646 40.8726 271.448 40.0132 271.061L37.2274 271.473C37.0891 271.495 36.9474 271.484 36.8145 271.439C36.6817 271.394 36.5617 271.318 36.4651 271.217C36.3685 271.115 36.2981 270.991 36.2601 270.857C36.2221 270.722 36.2176 270.58 36.247 270.443L36.6338 267.616C36.2667 266.786 36.0792 265.888 36.0834 264.98C36.0822 264.105 36.2538 263.239 36.5881 262.43C36.9225 261.622 37.4132 260.887 38.0321 260.269C38.6512 259.65 39.3863 259.159 40.1953 258.824C41.0044 258.489 41.8715 258.316 42.7471 258.317C44.5155 258.317 46.2114 259.019 47.4622 260.269C48.0808 260.888 48.5713 261.622 48.9057 262.431C49.2401 263.239 49.4117 264.106 49.4109 264.98Z" stroke="#272E3F" stroke-width="0.768895" stroke-linecap="round" stroke-linejoin="round"/>
<path d="M74.0771 258.402C74.0159 258.281 73.9212 258.179 73.8041 258.106C73.687 258.034 73.5524 257.994 73.4158 257.992L57.0135 257.773L56.472 258.946L61.1842 263.754L62.378 270.799L63.6138 271.369L73.9969 259.14C74.0816 259.04 74.1341 258.917 74.1483 258.786C74.1625 258.655 74.1378 258.522 74.0771 258.402ZM63.3673 269.898L62.3412 263.843L69.516 261.041L69.0559 260.022L61.825 262.846L57.9398 258.882L72.5548 259.077L63.3673 269.898Z" fill="#272E3F"/>
<path d="M224.38 271.488V258.471H234.504V271.488L229.442 269.318L224.38 271.488Z" fill="#272E3F"/>
<circle cx="24.4835" cy="28.2025" r="11.4669" fill="#272E3F"/>
<circle cx="203.306" cy="27.8926" r="3.71901" fill="#272E3F"/>
<circle cx="228.099" cy="27.8926" r="3.71901" fill="#272E3F"/>
<circle cx="215.702" cy="27.8926" r="3.71901" fill="#272E3F"/>
<path d="M106.536 173.25C105.636 173.25 104.773 172.893 104.137 172.256C103.5 171.62 103.143 170.757 103.143 169.857V129.143C103.143 128.565 103.291 127.996 103.573 127.491C103.855 126.987 104.261 126.562 104.752 126.258C105.244 125.954 105.806 125.781 106.383 125.755C106.961 125.729 107.535 125.851 108.052 126.11L148.767 146.467C149.329 146.749 149.803 147.182 150.133 147.718C150.464 148.253 150.639 148.87 150.639 149.5C150.639 150.13 150.464 150.747 150.133 151.282C149.803 151.818 149.329 152.251 148.767 152.533L108.052 172.89C107.581 173.126 107.062 173.249 106.536 173.25ZM109.929 134.633V164.367L139.664 149.5L109.929 134.633Z" fill="#D9D9D9"/>
<path d="M123.5 108.786C131.553 108.786 139.424 111.174 146.12 115.647C152.815 120.121 158.034 126.48 161.115 133.919C164.197 141.359 165.003 149.545 163.432 157.443C161.861 165.341 157.983 172.595 152.289 178.289C146.595 183.983 139.341 187.861 131.443 189.432C123.545 191.003 115.359 190.197 107.919 187.115C100.48 184.034 94.1211 178.815 89.6473 172.12C85.1736 165.424 82.7857 157.553 82.7857 149.5C82.7857 138.702 87.0753 128.346 94.7107 120.711C102.346 113.075 112.702 108.786 123.5 108.786ZM123.5 102C114.105 102 104.922 104.786 97.1104 110.005C89.2991 115.225 83.2109 122.643 79.6157 131.323C76.0206 140.002 75.0799 149.553 76.9127 158.767C78.7455 167.981 83.2695 176.445 89.9124 183.088C96.5554 189.731 105.019 194.254 114.233 196.087C123.447 197.92 132.998 196.979 141.677 193.384C150.357 189.789 157.775 183.701 162.995 175.89C168.214 168.078 171 158.895 171 149.5C171 136.902 165.996 124.82 157.088 115.912C148.18 107.004 136.098 102 123.5 102Z" fill="#D9D9D9"/>
</svg>
