<svg width="60" height="60" viewBox="0 0 60 60" fill="none" xmlns="http://www.w3.org/2000/svg">
<rect width="60" height="60" fill="#0F172A"/>
<path opacity="0.5" d="M16.5391 20.0259H18.1907L19.781 23.0294H19.8491L21.4394 20.0259H23.091L20.5472 24.5345V27H19.0829V24.5345L16.5391 20.0259ZM29.8838 23.5129C29.8838 24.2735 29.7396 24.9205 29.4513 25.454C29.1653 25.9875 28.7748 26.395 28.2799 26.6765C27.7872 26.9557 27.2333 27.0953 26.6181 27.0953C25.9983 27.0953 25.4421 26.9546 24.9495 26.6731C24.4568 26.3916 24.0675 25.9841 23.7814 25.4506C23.4954 24.9171 23.3524 24.2712 23.3524 23.5129C23.3524 22.7524 23.4954 22.1054 23.7814 21.5719C24.0675 21.0384 24.4568 20.632 24.9495 20.3528C25.4421 20.0713 25.9983 19.9305 26.6181 19.9305C27.2333 19.9305 27.7872 20.0713 28.2799 20.3528C28.7748 20.632 29.1653 21.0384 29.4513 21.5719C29.7396 22.1054 29.8838 22.7524 29.8838 23.5129ZM28.3889 23.5129C28.3889 23.0203 28.3151 22.6048 28.1675 22.2666C28.0222 21.9283 27.8168 21.6718 27.5511 21.497C27.2855 21.3222 26.9745 21.2348 26.6181 21.2348C26.2616 21.2348 25.9506 21.3222 25.685 21.497C25.4194 21.6718 25.2128 21.9283 25.0652 22.2666C24.9199 22.6048 24.8473 23.0203 24.8473 23.5129C24.8473 24.0056 24.9199 24.421 25.0652 24.7593C25.2128 25.0976 25.4194 25.3541 25.685 25.5289C25.9506 25.7037 26.2616 25.7911 26.6181 25.7911C26.9745 25.7911 27.2855 25.7037 27.5511 25.5289C27.8168 25.3541 28.0222 25.0976 28.1675 24.7593C28.3151 24.421 28.3889 24.0056 28.3889 23.5129ZM35.2838 20.0259H36.7583V24.555C36.7583 25.0635 36.6369 25.5085 36.3939 25.8899C36.1533 26.2713 35.8162 26.5687 35.3826 26.7821C34.9489 26.9932 34.4438 27.0988 33.8672 27.0988C33.2883 27.0988 32.782 26.9932 32.3484 26.7821C31.9148 26.5687 31.5777 26.2713 31.337 25.8899C31.0964 25.5085 30.9761 25.0635 30.9761 24.555V20.0259H32.4506V24.429C32.4506 24.6946 32.5085 24.9307 32.6242 25.1373C32.7423 25.3439 32.908 25.5062 33.1214 25.6242C33.3348 25.7423 33.5834 25.8013 33.8672 25.8013C34.1532 25.8013 34.4018 25.7423 34.613 25.6242C34.8264 25.5062 34.9909 25.3439 35.1067 25.1373C35.2248 24.9307 35.2838 24.6946 35.2838 24.429V20.0259ZM37.9715 27V20.0259H40.723C41.2497 20.0259 41.6992 20.1201 42.0715 20.3085C42.4461 20.4947 42.731 20.7592 42.9262 21.102C43.1237 21.4425 43.2225 21.8432 43.2225 22.304C43.2225 22.7672 43.1226 23.1656 42.9228 23.4993C42.7231 23.8308 42.4336 24.085 42.0545 24.2621C41.6776 24.4392 41.2213 24.5277 40.6855 24.5277H38.8432V23.3427H40.4471C40.7287 23.3427 40.9625 23.3041 41.1486 23.2269C41.3348 23.1497 41.4733 23.0339 41.5641 22.8795C41.6572 22.7252 41.7037 22.5333 41.7037 22.304C41.7037 22.0725 41.6572 21.8772 41.5641 21.7183C41.4733 21.5594 41.3337 21.4391 41.1452 21.3574C40.9591 21.2734 40.7241 21.2314 40.4403 21.2314H39.446V27H37.9715ZM41.7378 23.8262L43.4711 27H41.8433L40.1475 23.8262H41.7378ZM16.8728 39V32.0259H18.3474V37.7843H21.3372V39H16.8728ZM28.451 35.5129C28.451 36.2735 28.3068 36.9205 28.0185 37.454C27.7325 37.9875 27.342 38.395 26.8471 38.6765C26.3544 38.9557 25.8005 39.0953 25.1853 39.0953C24.5655 39.0953 24.0093 38.9546 23.5167 38.6731C23.024 38.3916 22.6347 37.9841 22.3486 37.4506C22.0626 36.9171 21.9196 36.2712 21.9196 35.5129C21.9196 34.7524 22.0626 34.1054 22.3486 33.5719C22.6347 33.0384 23.024 32.632 23.5167 32.3528C24.0093 32.0713 24.5655 31.9305 25.1853 31.9305C25.8005 31.9305 26.3544 32.0713 26.8471 32.3528C27.342 32.632 27.7325 33.0384 28.0185 33.5719C28.3068 34.1054 28.451 34.7524 28.451 35.5129ZM26.9561 35.5129C26.9561 35.0203 26.8823 34.6048 26.7347 34.2666C26.5894 33.9283 26.384 33.6718 26.1183 33.497C25.8527 33.3222 25.5417 33.2348 25.1853 33.2348C24.8289 33.2348 24.5178 33.3222 24.2522 33.497C23.9866 33.6718 23.78 33.9283 23.6324 34.2666C23.4871 34.6048 23.4145 35.0203 23.4145 35.5129C23.4145 36.0056 23.4871 36.421 23.6324 36.7593C23.78 37.0976 23.9866 37.3541 24.2522 37.5289C24.5178 37.7037 24.8289 37.7911 25.1853 37.7911C25.5417 37.7911 25.8527 37.7037 26.1183 37.5289C26.384 37.3541 26.5894 37.0976 26.7347 36.7593C26.8823 36.421 26.9561 36.0056 26.9561 35.5129ZM34.1677 34.2802C34.12 34.1145 34.0531 33.968 33.9668 33.8409C33.8805 33.7115 33.775 33.6025 33.6501 33.514C33.5275 33.4232 33.3868 33.3539 33.2278 33.3063C33.0712 33.2586 32.8975 33.2348 32.7068 33.2348C32.3504 33.2348 32.0371 33.3233 31.7669 33.5004C31.4991 33.6775 31.2902 33.9351 31.1404 34.2734C30.9905 34.6094 30.9156 35.0203 30.9156 35.5061C30.9156 35.992 30.9894 36.4051 31.137 36.7457C31.2845 37.0862 31.4934 37.3461 31.7635 37.5255C32.0337 37.7026 32.3527 37.7911 32.7204 37.7911C33.0542 37.7911 33.3391 37.7321 33.5752 37.614C33.8136 37.4937 33.9952 37.3246 34.12 37.1066C34.2472 36.8887 34.3107 36.631 34.3107 36.3336L34.6104 36.3779H32.8124V35.2677H35.7308V36.1463C35.7308 36.7593 35.6014 37.286 35.3425 37.7264C35.0837 38.1646 34.7273 38.5028 34.2733 38.7412C33.8192 38.9773 33.2993 39.0953 32.7136 39.0953C32.0598 39.0953 31.4854 38.9512 30.9905 38.6629C30.4956 38.3723 30.1097 37.9602 29.8327 37.4267C29.558 36.891 29.4207 36.2553 29.4207 35.5197C29.4207 34.9545 29.5024 34.4505 29.6659 34.0078C29.8316 33.5628 30.0631 33.186 30.3605 32.8772C30.6579 32.5685 31.0041 32.3335 31.3992 32.1723C31.7942 32.0111 32.2221 31.9305 32.683 31.9305C33.078 31.9305 33.4458 31.9884 33.7863 32.1042C34.1268 32.2177 34.4288 32.3789 34.6921 32.5877C34.9577 32.7966 35.1746 33.0452 35.3425 33.3335C35.5105 33.6196 35.6184 33.9351 35.6661 34.2802H34.1677ZM43.2472 35.5129C43.2472 36.2735 43.103 36.9205 42.8147 37.454C42.5287 37.9875 42.1382 38.395 41.6433 38.6765C41.1506 38.9557 40.5967 39.0953 39.9815 39.0953C39.3617 39.0953 38.8055 38.9546 38.3129 38.6731C37.8202 38.3916 37.4309 37.9841 37.1448 37.4506C36.8588 36.9171 36.7158 36.2712 36.7158 35.5129C36.7158 34.7524 36.8588 34.1054 37.1448 33.5719C37.4309 33.0384 37.8202 32.632 38.3129 32.3528C38.8055 32.0713 39.3617 31.9305 39.9815 31.9305C40.5967 31.9305 41.1506 32.0713 41.6433 32.3528C42.1382 32.632 42.5287 33.0384 42.8147 33.5719C43.103 34.1054 43.2472 34.7524 43.2472 35.5129ZM41.7522 35.5129C41.7522 35.0203 41.6785 34.6048 41.5309 34.2666C41.3856 33.9283 41.1801 33.6718 40.9145 33.497C40.6489 33.3222 40.3379 33.2348 39.9815 33.2348C39.625 33.2348 39.314 33.3222 39.0484 33.497C38.7828 33.6718 38.5762 33.9283 38.4286 34.2666C38.2833 34.6048 38.2107 35.0203 38.2107 35.5129C38.2107 36.0056 38.2833 36.421 38.4286 36.7593C38.5762 37.0976 38.7828 37.3541 39.0484 37.5289C39.314 37.7037 39.625 37.7911 39.9815 37.7911C40.3379 37.7911 40.6489 37.7037 40.9145 37.5289C41.1801 37.3541 41.3856 37.0976 41.5309 36.7593C41.6785 36.421 41.7522 36.0056 41.7522 35.5129Z" fill="white"/>
</svg>
