<svg width="400" height="483" viewBox="0 0 400 483" fill="none" xmlns="http://www.w3.org/2000/svg">
<rect x="0.5" y="0.5" width="399" height="482" rx="14.5" fill="white" stroke="#D9D9D9"/>
<rect x="22" y="87" width="356" height="308" fill="#272E3F"/>
<path d="M21 424.06C21 430.134 25.9867 433.37 29.6362 436.268C30.9239 437.29 32.1643 438.253 33.4048 438.253C34.6453 438.253 35.8858 437.291 37.1734 436.267C40.8242 433.371 45.8097 430.134 45.8097 424.061C45.8097 417.987 38.987 413.679 33.4048 419.52C27.8227 413.678 21 417.986 21 424.06Z" fill="#272E3F"/>
<path d="M79.7162 427.502C79.7182 428.913 79.4416 430.311 78.9021 431.616C78.3626 432.92 77.5709 434.105 76.5723 435.103C75.5734 436.102 74.3875 436.894 73.0823 437.435C71.777 437.975 70.3781 438.253 68.9654 438.253C67.4449 438.256 65.9411 437.935 64.5547 437.311L60.0603 437.976C59.8371 438.012 59.6084 437.994 59.3941 437.922C59.1798 437.85 58.9863 437.726 58.8304 437.563C58.6745 437.399 58.561 437.2 58.4996 436.982C58.4383 436.764 58.431 436.535 58.4784 436.314L59.1026 431.754C58.5103 430.415 58.2077 428.966 58.2146 427.502C58.2127 426.09 58.4894 424.692 59.0289 423.388C59.5684 422.083 60.36 420.898 61.3585 419.901C62.3573 418.902 63.5432 418.109 64.8485 417.569C66.1537 417.028 67.5527 416.75 68.9654 416.751C71.8183 416.751 74.5543 417.884 76.5723 419.901C77.5703 420.899 78.3617 422.084 78.9012 423.388C79.4407 424.692 79.7176 426.09 79.7162 427.502Z" stroke="#272E3F" stroke-width="1.24048" stroke-linecap="round" stroke-linejoin="round"/>
<path d="M119.511 416.888C119.412 416.694 119.26 416.529 119.071 416.412C118.882 416.295 118.664 416.231 118.444 416.228L91.9818 415.874L91.1081 417.767L98.7105 425.523L100.637 436.889L102.63 437.809L119.382 418.079C119.518 417.917 119.603 417.719 119.626 417.508C119.649 417.297 119.609 417.082 119.511 416.888ZM102.233 435.436L100.577 425.666L112.152 421.145L111.41 419.501L99.7444 424.058L93.4762 417.663L117.055 417.977L102.233 435.436Z" fill="#272E3F"/>
<path d="M362 438V417H378.333V438L370.167 434.5L362 438Z" fill="#272E3F"/>
<path d="M276.5 168H122.5C119.715 168 117.045 169.106 115.075 171.075C113.106 173.045 112 175.715 112 178.5V304.5C112 307.285 113.106 309.955 115.075 311.925C117.045 313.894 119.715 315 122.5 315H276.5C279.285 315 281.955 313.894 283.925 311.925C285.894 309.955 287 307.285 287 304.5V178.5C287 175.715 285.894 173.045 283.925 171.075C281.955 169.106 279.285 168 276.5 168ZM122.5 175H276.5C277.428 175 278.318 175.369 278.975 176.025C279.631 176.682 280 177.572 280 178.5V276.85L251.221 248.071C250.246 247.092 249.087 246.316 247.81 245.786C246.534 245.256 245.166 244.983 243.784 244.983C242.402 244.983 241.033 245.256 239.757 245.786C238.481 246.316 237.322 247.092 236.346 248.071L216.37 268.047L175.402 227.071C174.427 226.092 173.268 225.316 171.992 224.786C170.715 224.256 169.347 223.983 167.965 223.983C166.583 223.983 165.215 224.256 163.938 224.786C162.662 225.316 161.503 226.092 160.527 227.071L119 268.625V178.5C119 177.572 119.369 176.682 120.025 176.025C120.682 175.369 121.572 175 122.5 175ZM119 304.5V278.547L165.524 232.024C165.849 231.698 166.235 231.44 166.66 231.264C167.085 231.088 167.54 230.997 168 230.997C168.46 230.997 168.915 231.088 169.34 231.264C169.765 231.44 170.151 231.698 170.476 232.024L246.453 308H122.5C121.572 308 120.682 307.631 120.025 306.975C119.369 306.318 119 305.428 119 304.5ZM276.5 308H256.375L221.375 273L241.351 253.024C241.676 252.698 242.062 252.44 242.487 252.264C242.912 252.088 243.368 251.997 243.828 251.997C244.287 251.997 244.743 252.088 245.168 252.264C245.593 252.44 245.979 252.698 246.304 253.024L280 286.746V304.5C280 305.428 279.631 306.318 278.975 306.975C278.318 307.631 277.428 308 276.5 308ZM217 217C217 215.616 217.411 214.262 218.18 213.111C218.949 211.96 220.042 211.063 221.321 210.533C222.6 210.003 224.008 209.864 225.366 210.135C226.724 210.405 227.971 211.071 228.95 212.05C229.929 213.029 230.595 214.277 230.865 215.634C231.136 216.992 230.997 218.4 230.467 219.679C229.937 220.958 229.04 222.051 227.889 222.82C226.738 223.589 225.384 224 224 224C222.143 224 220.363 223.263 219.05 221.95C217.737 220.637 217 218.857 217 217Z" fill="#D9D9D9"/>
<circle cx="39.5" cy="45.5" r="18.5" fill="#272E3F"/>
<circle cx="328" cy="45" r="6" fill="#272E3F"/>
<circle cx="368" cy="45" r="6" fill="#272E3F"/>
<circle cx="348" cy="45" r="6" fill="#272E3F"/>
</svg>
