<svg width="67" height="20" viewBox="0 0 67 20" fill="none" xmlns="http://www.w3.org/2000/svg">
  <path d="M3.44828 0.0701253C2.07696 0.67415 0.569424 2.38059 0.0932946 4.52255C-0.509686 7.2365 1.9996 8.38414 2.20541 8.00784C2.44765 7.56568 1.75578 7.41616 1.61336 6.00804C1.4293 4.18934 2.2328 2.15714 3.24404 1.26547C3.43201 1.09981 3.42307 1.33038 3.42307 1.75688C3.42307 2.51955 3.38302 9.36612 3.38302 10.795C3.38302 12.7285 3.30713 13.339 3.17083 13.9423C3.03273 14.5537 2.81071 14.9668 2.97894 15.1259C3.16691 15.3039 3.96944 14.8805 4.43404 14.1982C4.99116 13.3799 5.18618 12.3971 5.22119 11.3298C5.26348 10.0432 5.26168 8.00159 5.26348 6.8371C5.26517 5.76908 5.28058 2.6417 5.24569 0.761637C5.23714 0.300496 4.02177 -0.18331 3.44821 0.0695644L3.44828 0.0701253ZM52.1437 9.11857C52.0995 10.1237 51.8881 10.9094 51.6257 11.4636C51.1176 12.5364 50.0634 12.8696 49.6158 11.3273C49.3719 10.4866 49.3605 9.08258 49.5359 7.90942C49.7144 6.71431 50.2129 5.81172 51.0382 5.89312C51.8523 5.97358 52.2334 7.07744 52.1437 9.11853V9.11857ZM38.4193 15.3548C38.4083 17.025 38.1585 18.4893 37.6228 18.9146C36.8631 19.5177 35.8419 19.0653 36.0534 17.8466C36.2405 16.7682 37.1253 15.6668 38.4215 14.3211C38.4215 14.3211 38.4242 14.628 38.4194 15.3548H38.4193ZM38.2118 9.10884C38.1654 10.0243 37.9398 10.944 37.6938 11.4637C37.1858 12.5365 36.124 12.8719 35.6839 11.3274C35.3831 10.2721 35.4551 8.90635 35.604 8.04577C35.7972 6.92921 36.2654 5.89336 37.1063 5.89336C37.9239 5.89336 38.3271 6.83725 38.2118 9.10892V9.10884ZM30.2613 9.09484C30.2114 10.0644 30.0317 10.875 29.7432 11.4637C29.2213 12.5292 28.1887 12.8671 27.7334 11.3274C27.4051 10.2172 27.5168 8.70343 27.6534 7.88568C27.8561 6.67218 28.3635 5.81184 29.1558 5.89336C29.9695 5.97702 30.3651 7.07755 30.2613 9.09491V9.09484ZM66.6969 10.2274C66.498 10.2274 66.4072 10.4432 66.3321 10.8064C66.0716 12.0692 65.7978 12.3544 65.4447 12.3544C65.0502 12.3544 64.6958 11.7291 64.6046 10.4773C64.533 9.49299 64.5445 7.68087 64.6361 5.8783C64.6548 5.50794 64.5577 5.14149 63.6137 4.78062C63.2075 4.6254 62.617 4.39685 62.323 5.14363C61.4924 7.25343 61.1673 8.92843 61.0909 9.60888C61.0869 9.64409 61.0459 9.65129 61.0387 9.56901C60.99 9.02402 60.881 8.03367 60.8675 5.95295C60.8649 5.54698 60.7831 5.20142 60.3573 4.91851C60.081 4.73494 59.242 4.41026 58.9399 4.79652C58.6781 5.11242 58.375 5.96256 58.06 6.97029C57.804 7.78933 57.6257 8.3434 57.6257 8.3434C57.6257 8.3434 57.6291 6.13344 57.6322 5.29517C57.6335 4.97892 57.4274 4.87354 57.3652 4.85444C57.0854 4.76899 56.5342 4.62624 56.3002 4.62624C56.0115 4.62624 55.9408 4.79605 55.9408 5.04348C55.9408 5.07587 55.8952 7.9531 55.8952 9.96499C55.8952 10.0524 55.8952 10.1477 55.8961 10.249C55.7364 11.1737 55.2185 12.4289 54.6554 12.4289C54.0915 12.4289 53.8255 11.9042 53.8255 9.50568C53.8255 8.10646 53.8654 7.49805 53.885 6.48605C53.8964 5.90315 53.9184 5.45553 53.9172 5.35395C53.913 5.04245 53.4011 4.88545 53.1629 4.82743C52.9236 4.76892 52.7157 4.74625 52.5533 4.75598C52.3235 4.76963 52.1608 4.9283 52.1608 5.14652C52.1608 5.26353 52.1621 5.48603 52.1621 5.48603C51.8661 4.99653 51.39 4.65583 51.0732 4.5571C50.2199 4.29045 49.3296 4.52672 48.658 5.51559C48.1243 6.30129 47.8026 7.19118 47.6759 8.46971C47.5833 9.40441 47.6135 10.3523 47.7781 11.1539C47.5793 12.0584 47.2102 12.4289 46.806 12.4289C46.2192 12.4289 45.7938 11.4212 45.8432 9.67822C45.8758 8.53183 46.0938 7.72732 46.3321 6.56342C46.4337 6.06727 46.3512 5.8075 46.1441 5.55854C45.9542 5.33022 45.5496 5.21357 44.9679 5.35704C44.5536 5.45933 43.9612 5.56933 43.4192 5.65383C43.4192 5.65383 43.4519 5.51653 43.4788 5.27445C43.6197 4.00494 42.3087 4.10794 41.8905 4.51343C41.6408 4.75551 41.4708 5.04103 41.4063 5.55439C41.304 6.36905 41.9355 6.7533 41.9355 6.7533C41.7283 7.75117 41.2205 9.05474 40.6962 9.9972C40.4154 10.5021 40.2006 10.8763 39.9233 11.2741C39.9222 11.126 39.9215 10.9779 39.921 10.8305C39.9146 8.73252 39.9412 7.08137 39.9529 6.48625C39.9643 5.90336 39.9865 5.4676 39.9852 5.36603C39.9821 5.13818 39.8557 5.05215 39.5927 4.94321C39.3602 4.84685 39.0852 4.78016 38.8 4.7569C38.44 4.72736 38.2232 4.92826 38.2288 5.16583C38.2299 5.21069 38.2299 5.48612 38.2299 5.48612C37.9339 4.99661 37.4578 4.65592 37.141 4.55718C36.2877 4.29065 35.3974 4.52692 34.7258 5.51567C34.1922 6.30137 33.8427 7.40391 33.7437 8.46006C33.6515 9.4444 33.6685 10.2809 33.7942 10.9856C33.6586 11.6912 33.2685 12.429 32.8274 12.429C32.2636 12.429 31.9427 11.9042 31.9427 9.50577C31.9427 8.10655 31.9827 7.49814 32.0023 6.48625C32.0137 5.90336 32.0357 5.45562 32.0344 5.35416C32.0303 5.04266 31.5184 4.88566 31.2802 4.82751C31.031 4.76687 30.8158 4.74456 30.6506 4.75737C30.4326 4.77446 30.2793 4.97988 30.2793 5.13308V5.48612C29.9833 4.99661 29.5072 4.65592 29.1904 4.55718C28.3372 4.29065 27.4518 4.53072 26.7753 5.51567C26.3341 6.1579 25.977 6.86991 25.7931 8.44606C25.74 8.90154 25.7166 9.32806 25.7196 9.72673C25.5437 10.8589 24.7667 12.1637 24.1311 12.1637C23.7592 12.1637 23.405 11.4046 23.405 9.78677C23.405 7.63175 23.5317 4.56347 23.5531 4.26775C23.5531 4.26775 24.3562 4.2534 24.5117 4.25149C24.9123 4.24686 25.2751 4.25683 25.8086 4.22811C26.0762 4.21376 26.334 3.20318 26.0578 3.07811C25.9326 3.0215 25.0479 2.9719 24.6972 2.96406C24.4023 2.95703 23.5813 2.8931 23.5813 2.8931C23.5813 2.8931 23.655 0.856513 23.6721 0.641373C23.6867 0.462064 23.4662 0.369743 23.3398 0.313724C23.0324 0.176903 22.7573 0.111394 22.4313 0.040669C21.9809 -0.0571086 21.7765 0.0385328 21.7366 0.438563C21.6765 1.04568 21.6454 2.82391 21.6454 2.82391C21.3148 2.82391 20.1858 2.75592 19.8551 2.75592C19.5479 2.75592 19.2164 4.14612 19.6411 4.1632C20.1297 4.18314 20.9813 4.20035 21.5458 4.21827C21.5458 4.21827 21.5206 7.3371 21.5206 8.29998C21.5206 8.40242 21.5215 8.50107 21.5217 8.59679C21.211 10.3009 20.1166 11.2214 20.1166 11.2214C20.3516 10.094 19.8716 9.24745 19.0068 8.53081C18.6883 8.26673 18.0593 7.76679 17.3556 7.21893C17.3556 7.21893 17.7632 6.79624 18.1246 5.94586C18.3807 5.3435 18.3918 4.65416 17.7632 4.50215C16.7245 4.25081 15.8682 5.05347 15.6127 5.91038C15.4148 6.57421 15.5204 7.0668 15.9081 7.5785C15.9364 7.61588 15.9671 7.65409 15.9987 7.69254C15.7643 8.16806 15.4422 8.80828 15.1694 9.30476C14.4123 10.6832 13.8403 11.7735 13.408 11.7735C13.0625 11.7735 13.0671 10.6666 13.0671 9.63015C13.0671 8.73667 13.1298 7.39337 13.1799 6.00259C13.1965 5.54263 12.9779 5.2806 12.6115 5.04327C12.3889 4.89909 11.9138 4.61559 11.6386 4.61559C11.2268 4.61559 10.0385 4.67457 8.91574 8.09209C8.77424 8.52285 8.49627 9.30773 8.49627 9.30773L8.52019 5.19801C8.52019 5.10166 8.47142 5.0085 8.35976 4.94477C8.17056 4.83667 7.66524 4.61559 7.21591 4.61559C7.00182 4.61559 6.89498 4.72038 6.89498 4.92923L6.85579 11.3589C6.85579 11.8474 6.8679 12.4174 6.9138 12.6666C6.95953 12.9162 7.03362 13.1192 7.12538 13.24C7.21701 13.3606 7.323 13.4526 7.49774 13.4905C7.66039 13.5258 8.55099 13.6461 8.59728 13.288C8.65274 12.8588 8.65486 12.3945 9.12251 10.6632C9.85055 7.96761 10.7998 6.65241 11.246 6.18533C11.324 6.10369 11.4131 6.09882 11.4088 6.23244C11.3898 6.82341 11.3228 8.30012 11.2777 9.55468C11.1568 12.912 11.7372 13.5343 12.5667 13.5343C13.2013 13.5343 14.0958 12.8709 15.0547 11.1914C15.6525 10.1447 16.2329 9.11846 16.6499 8.3788C16.9406 8.66189 17.2667 8.96658 17.5926 9.29208C18.35 10.0485 18.5987 10.7672 18.4337 11.4491C18.3075 11.9704 17.8323 12.5076 16.9865 11.9854C16.7399 11.8331 16.6347 11.7154 16.3868 11.5437C16.2537 11.4514 16.0503 11.4238 15.9284 11.5205C15.6118 11.7717 15.4307 12.0913 15.3272 12.4869C15.2267 12.8719 15.593 13.0754 15.9729 13.2534C16.2999 13.4066 17.0028 13.5455 17.4511 13.5613C19.1977 13.6227 20.5969 12.6738 21.5709 10.2262C21.7452 12.34 22.4873 13.5362 23.7765 13.5362C24.6384 13.5362 25.5026 12.3639 25.8805 11.2106C25.989 11.6807 26.1496 12.0895 26.3569 12.4352C27.3504 14.0915 29.2775 13.735 30.2456 12.3286C30.5449 11.894 30.5904 11.7378 30.5904 11.7378C30.7316 13.0658 31.7479 13.5298 32.3298 13.5298C32.9815 13.5298 33.6544 13.2056 34.1261 12.0884C34.1813 12.2096 34.2417 12.3254 34.3075 12.4352C35.3009 14.0914 37.2281 13.735 38.1961 12.3285C38.2418 12.2626 38.2814 12.2027 38.316 12.149L38.3444 13.0213C38.3444 13.0213 37.7922 13.5544 37.4532 13.8814C35.9612 15.3218 34.8267 16.4146 34.7433 17.6872C34.6361 19.3099 35.8868 19.913 36.8329 19.992C37.8377 20.0759 38.6982 19.4918 39.2271 18.6744C39.6923 17.9549 39.9968 16.4064 39.9744 14.877C39.9655 14.2646 39.9509 13.4859 39.9394 12.6512C40.4638 12.0104 41.0546 11.2005 41.5986 10.2524C42.1914 9.21926 42.8268 7.83182 43.1521 6.75206C43.1521 6.75206 43.7042 6.75704 44.2933 6.71646C44.4817 6.70353 44.5359 6.74398 44.501 6.88936C44.459 7.06498 43.7567 9.91516 44.3976 11.8139C44.8363 13.1136 45.8252 13.5318 46.4115 13.5318C47.0978 13.5318 47.7544 12.9864 48.1062 12.1765C48.1486 12.2668 48.193 12.3542 48.2413 12.4348C49.2348 14.0911 51.1552 13.7325 52.13 12.3282C52.35 12.0113 52.4748 11.7374 52.4748 11.7374C52.684 13.1118 53.6997 13.5364 54.2815 13.5364C54.8876 13.5364 55.4627 13.275 55.9294 12.1131C55.9489 12.6247 55.9796 13.043 56.028 13.1749C56.0576 13.2555 56.2298 13.3568 56.3551 13.4057C56.9095 13.622 57.4749 13.5197 57.6841 13.4752C57.829 13.4444 57.942 13.322 57.9575 13.0061C57.9981 12.1766 57.9731 10.783 58.2121 9.74724C58.6133 8.00899 58.9874 7.33472 59.1649 7.00091C59.2643 6.81388 59.3764 6.78303 59.3804 6.98097C59.3888 7.38147 59.4077 8.5576 59.5631 10.1378C59.6772 11.2999 59.8297 11.9869 59.9469 12.2043C60.2813 12.826 60.6942 12.8554 61.0305 12.8554C61.2444 12.8554 61.6918 12.7932 61.6518 12.3976C61.6323 12.2047 61.6665 11.0129 62.0619 9.30045C62.3202 8.18213 62.7508 7.17165 62.906 6.80225C62.9633 6.66601 62.9899 6.7734 62.989 6.79432C62.9563 7.56448 62.8829 10.0836 63.1811 11.4613C63.5853 13.3277 64.7545 13.5366 65.1619 13.5366C66.0318 13.5366 66.7431 12.8403 66.9828 11.0084C67.0405 10.5675 66.955 10.2271 66.6989 10.2271" fill="#111" />
</svg>